<?xml version="1.0" encoding="utf-8"?>
<!-- Generator: Adobe Illustrator 23.0.3, SVG Export Plug-In . SVG Version: 6.00 Build 0)  -->
<svg version="1.1" id="Capa_1" focusable="false" xmlns="http://www.w3.org/2000/svg" xmlns:xlink="http://www.w3.org/1999/xlink"
	 x="0px" y="0px" viewBox="0 0 640 512" style="enable-background:new 0 0 640 512;" xml:space="preserve">
<style type="text/css">
	.st0{fill:#C60A2C;}
</style>
<g>
	<path class="st0" d="M368,14c18.7,0,34,15.3,34,34v48v14h14h44.1c8.9,0,17.6,3.6,24,10l99.9,99.9c6.4,6.4,10,15.1,10,24V352v14h14
		h16c1.1,0,2,0.9,2,2v32c0,1.1-0.9,2-2,2h-48h-14v14c0,45.2-36.8,82-82,82s-82-36.8-82-82v-14h-14H256h-14v14c0,45.2-36.8,82-82,82
		s-82-36.8-82-82v-14H64H48c-18.7,0-34-15.3-34-34V48c0-18.7,15.3-34,34-34H368 M402,270h14h144h14v-14v-12.1v-5.8l-4.1-4.1
		L470,134.1l-4.1-4.1h-5.8H416h-14v14v112V270 M480,478c34.2,0,62-27.8,62-62s-27.8-62-62-62s-62,27.8-62,62S445.8,478,480,478
		 M160,478c34.2,0,62-27.8,62-62s-27.8-62-62-62s-62,27.8-62,62S125.8,478,160,478 M368,0H48C21.5,0,0,21.5,0,48v320
		c0,26.5,21.5,48,48,48h16c0,53,43,96,96,96s96-43,96-96h128c0,53,43,96,96,96s96-43,96-96h48c8.8,0,16-7.2,16-16v-32
		c0-8.8-7.2-16-16-16h-16V243.9c0-12.7-5.1-24.9-14.1-33.9L494,110.1c-9-9-21.2-14.1-33.9-14.1H416V48C416,21.5,394.5,0,368,0L368,0
		z M416,256V144h44.1l99.9,99.9V256H416L416,256z M480,464c-26.5,0-48-21.5-48-48s21.5-48,48-48s48,21.5,48,48S506.5,464,480,464
		L480,464z M160,464c-26.5,0-48-21.5-48-48s21.5-48,48-48s48,21.5,48,48S186.5,464,160,464L160,464z"/>
</g>
</svg>
